<svg x="0" y="0" width="48" height="48" version="1.1" xmlns="http://www.w3.org/2000/svg" xmlns:xlink="http://www.w3.org/1999/xlink"><defs><linearGradient x1="8.46611" y1="14.67966" x2="64.51739" y2="58.30382" gradientUnits="userSpaceOnUse" id="color-1"><stop offset="1" stop-color="#000000" stop-opacity="0.79"></stop><stop offset="1" stop-color="#000000" stop-opacity="0"></stop></linearGradient><filter id="dropshadow"><feColorMatrix type="matrix" values="0 0 0 0 .05  0 0 0 0 .15  0 0 0 0 .1  0 0 0 .8 0"></feColorMatrix> <feOffset dx="0" dy="1"></feOffset> <feGaussianBlur stdDeviation="1"></feGaussianBlur> <feComposite in="SourceGraphic"></feComposite></filter></defs><g fill="none" stroke="none" stroke-width="none" stroke-linecap="butt" stroke-linejoin="miter" stroke-miterlimit="none" stroke-dasharray="" stroke-dashoffset="0" font-family="none" font-weight="normal" font-size="none" text-anchor="start" mix-blend-mode="normal"><g fill="#000000" stroke="none" stroke-width="1" stroke-miterlimit="4" font-family="&quot;Open Sans&quot;, sans-serif" font-size="14"></g><path d="M3,24c0,-11.59798 9.40202,-21 21,-21c11.59798,0 21,9.40202 21,21c0,11.59798 -9.40202,21 -21,21c-11.59798,0 -21,-9.40202 -21,-21z" fill="#0e1116" stroke-width="1" stroke-miterlimit="10" font-family="sans-serif" font-size="12" filter="url(#dropshadow)"></path><path d="M20.00002,16.89325l0.00001,-0.00001l-2.21359,-2.21359l2.25241,2.17475c0,0 0.00001,0.00001 0.00001,0.00001l0.00001,-0.00001l11.14557,11.14557l3.99997,-3.99997l-7.14559,-7.14559l2.17475,-2.17475l14.21337,14.21337c-1.83004,7.66806 -7.86583,13.70386 -15.53389,15.5339c0,0 -20.42693,-20.42693 -20.42693,-20.42693l9.32033,-9.32033z" fill="url(#color-1)" stroke-width="1" stroke-miterlimit="10" font-family="sans-serif" font-size="12"></path><path d="M17.78645,33.32033l-9.32033,-9.32033l9.32033,-9.32033l2.25241,2.17474l-7.14559,7.14559l7.06792,7.14559z M35.1844,24l-7.14559,-7.14559l2.17474,-2.17474l9.32033,9.32033l-9.32033,9.32033l-2.17474,-2.17474z" fill="#ffffff" stroke="none" stroke-width="0" stroke-miterlimit="4" font-family="&quot;Open Sans&quot;, sans-serif" font-size="14"></path></g></svg>